<svg width="512" height="512" viewBox="0 0 512 512" fill="none" xmlns="http://www.w3.org/2000/svg">
  <!-- Circular Frame -->
  <circle cx="256" cy="256" r="235" stroke="#1E293B" stroke-width="12"/>
  
  <!-- Human Silhouette (Expert) -->
  <path d="M256 128C210 128 178 160 178 206C178 245 198 255 188 280C178 305 156 328 156 384V448H356V384C356 328 334 305 324 280C314 255 334 245 334 206C334 160 302 128 256 128Z" fill="white" stroke="#1E293B" stroke-width="8"/>
  
  <!-- Spiky Hair Detail -->
  <path d="M190 180L178 206L195 215L185 240M256 128L230 110L210 130L178 160M256 128L282 110L302 130L334 160M334 206L317 215L327 240" stroke="#1E293B" stroke-width="8" stroke-linecap="round" stroke-linejoin="round" fill="none"/>
  
  <!-- The Wind-blown Scarf (Expert Persona) -->
  <path d="M60 260L80 240L140 270L180 250L256 265C290 280 340 250 400 280L420 320L400 340C360 310 310 340 256 320C210 305 150 340 120 320L100 340L60 260Z" fill="#FACC15" stroke="#1E293B" stroke-width="6" stroke-linejoin="round"/>
  
  <!-- Knowledge Graph / Brain Network -->
  <g id="knowledge-core" transform="translate(195, 330)">
    <!-- Connections -->
    <path d="M20 20L60 10L100 25L80 50L40 60L20 20Z" stroke="#1E293B" stroke-width="3" fill="none" opacity="0.3"/>
    <line x1="20" y1="20" x2="60" y2="40" stroke="#1E293B" stroke-width="4"/>
    <line x1="60" y1="40" x2="100" y2="25" stroke="#1E293B" stroke-width="4"/>
    <line x1="60" y1="40" x2="80" y2="70" stroke="#1E293B" stroke-width="4"/>
    <line x1="80" y1="70" x2="40" y2="60" stroke="#1E293B" stroke-width="4"/>
    <line x1="40" y1="60" x2="20" y2="20" stroke="#1E293B" stroke-width="4"/>
    
    <!-- Active Expertise Nodes -->
    <circle cx="20" cy="20" r="7" fill="#FACC15" stroke="#1E293B" stroke-width="2"/>
    <circle cx="60" cy="40" r="10" fill="#1E293B"/>
    <circle cx="100" cy="25" r="7" fill="#FACC15" stroke="#1E293B" stroke-width="2"/>
    <circle cx="80" cy="70" r="9" fill="#1E293B"/>
    <circle cx="40" cy="60" r="7" fill="#FACC15" stroke="#1E293B" stroke-width="2"/>
    <circle cx="60" cy="10" r="5" fill="#FACC15" stroke="#1E293B" stroke-width="2"/>
  </g>
  
  <!-- Foundation / Shoulders -->
  <path d="M156 448C156 400 180 380 210 370" stroke="#1E293B" stroke-width="10" stroke-linecap="round"/>
  <path d="M356 448C356 400 332 380 302 370" stroke="#1E293B" stroke-width="10" stroke-linecap="round"/>
</svg>
